<svg width="13" height="13" viewBox="0 0 13 13" fill="none" xmlns="http://www.w3.org/2000/svg">
<path d="M9.34899 8.66633C8.85957 8.56414 8.40955 8.37422 8.0128 8.10313C7.82042 7.967 7.54599 7.98363 7.34314 8.12795L6.18103 8.73944C5.35944 7.87524 4.95197 6.96011 4.80207 5.6405L5.80184 4.745C6.03248 4.58395 6.1859 4.30976 6.20226 4.02637C6.22677 3.45734 6.3343 2.87732 6.52202 2.30304C6.65471 1.89711 6.48165 1.5081 6.1363 1.43598L4.67473 1.13079C4.32937 1.05868 3.94036 1.33033 3.80767 1.73626C2.25953 6.47236 4.27837 11.0105 8.30769 11.8519C8.65305 11.924 9.04206 11.6523 9.17475 11.2464L9.73471 9.53339C9.8674 9.12746 9.69434 8.73845 9.34899 8.66633Z" fill="#94B7ED"/>
</svg>
