<svg width="35" height="35" viewBox="0 0 35 35" fill="none" xmlns="http://www.w3.org/2000/svg">
<path d="M22.75 17.5C22.75 18.8924 22.1968 20.2278 21.2123 21.2123C20.2277 22.1969 18.8923 22.75 17.5 22.75C16.1076 22.75 14.7722 22.1969 13.7876 21.2123C12.8031 20.2278 12.25 18.8924 12.25 17.5C12.25 17.2008 12.2815 16.9085 12.3357 16.625H10.5V23.6198C10.5 24.1063 10.8937 24.5 11.3802 24.5H23.6215C23.8546 24.4995 24.0781 24.4066 24.2428 24.2416C24.4075 24.0765 24.5 23.8529 24.5 23.6198V16.625H22.6642C22.7185 16.9085 22.75 17.2008 22.75 17.5ZM17.5 21C17.9597 20.9999 18.4149 20.9092 18.8396 20.7332C19.2643 20.5571 19.6502 20.2992 19.9752 19.974C20.3002 19.6488 20.558 19.2628 20.7338 18.8381C20.9096 18.4133 21.0001 17.958 21 17.4983C20.9998 17.0385 20.9092 16.5833 20.7331 16.1586C20.5571 15.7339 20.2991 15.348 19.974 15.023C19.6488 14.698 19.2628 14.4402 18.838 14.2644C18.4132 14.0886 17.9579 13.9981 17.4982 13.9983C16.5697 13.9985 15.6793 14.3676 15.023 15.0243C14.3666 15.681 13.998 16.5715 13.9982 17.5C13.9984 18.4285 14.3675 19.3189 15.0242 19.9752C15.6809 20.6316 16.5715 21.0002 17.5 21ZM21.7 13.825H23.7982C23.9376 13.825 24.0713 13.7698 24.1701 13.6713C24.2688 13.5729 24.3245 13.4394 24.325 13.3V11.2018C24.325 11.0621 24.2695 10.9281 24.1707 10.8293C24.0719 10.7305 23.9379 10.675 23.7982 10.675H21.7C21.5602 10.675 21.4263 10.7305 21.3275 10.8293C21.2287 10.9281 21.1732 11.0621 21.1732 11.2018V13.3C21.175 13.5888 21.4112 13.825 21.7 13.825ZM17.5 0.700012C13.0443 0.700012 8.77117 2.47001 5.62056 5.62062C2.46995 8.77123 0.699951 13.0444 0.699951 17.5C0.699951 21.9556 2.46995 26.2288 5.62056 29.3794C8.77117 32.53 13.0443 34.3 17.5 34.3C19.7062 34.3 21.8908 33.8655 23.929 33.0212C25.9673 32.1769 27.8193 30.9394 29.3793 29.3794C30.9394 27.8194 32.1768 25.9674 33.0211 23.9291C33.8654 21.8908 34.3 19.7062 34.3 17.5C34.3 15.2938 33.8654 13.1092 33.0211 11.0709C32.1768 9.03266 30.9394 7.18064 29.3793 5.62062C27.8193 4.06059 25.9673 2.82312 23.929 1.97884C21.8908 1.13456 19.7062 0.700012 17.5 0.700012ZM26.25 24.3058C26.25 25.375 25.375 26.25 24.3057 26.25H10.6942C9.62495 26.25 8.74995 25.375 8.74995 24.3058V10.6943C8.74995 9.62501 9.62495 8.75001 10.6942 8.75001H24.3057C25.375 8.75001 26.25 9.62501 26.25 10.6943V24.3058Z" fill="white"/>
</svg>
