<svg width="210" height="35" viewBox="0 0 210 35" fill="none" xmlns="http://www.w3.org/2000/svg">
<path d="M15.7578 35L4.25 4.67188H4.0625C4.125 5.3125 4.17969 6.09375 4.22656 7.01562C4.27344 7.9375 4.3125 8.94531 4.34375 10.0391C4.375 11.1172 4.39062 12.2188 4.39062 13.3438V35H0.6875V0.734375H6.59375L17.4453 29.2344H17.6094L28.625 0.734375H34.4844V35H30.5469V13.0625C30.5469 12.0469 30.5625 11.0312 30.5938 10.0156C30.625 8.98438 30.6641 8.01562 30.7109 7.10938C30.7578 6.1875 30.8047 5.39063 30.8516 4.71875H30.6641L19.0156 35H15.7578ZM43.8594 35V0.734375H47.8438V35H43.8594ZM84.0547 35H79.4609L60.7812 6.21875H60.5938C60.6406 6.98438 60.6953 7.85938 60.7578 8.84375C60.8203 9.8125 60.8672 10.8516 60.8984 11.9609C60.9453 13.0547 60.9688 14.1719 60.9688 15.3125V35H57.2656V0.734375H61.8359L80.4453 29.4219H80.6094C80.5781 28.875 80.5391 28.1016 80.4922 27.1016C80.4453 26.0859 80.3984 25 80.3516 23.8438C80.3203 22.6719 80.3047 21.5859 80.3047 20.5859V0.734375H84.0547V35ZM120.617 17.5391C120.617 21.3984 119.914 24.625 118.508 27.2188C117.102 29.7969 115.062 31.7422 112.391 33.0547C109.734 34.3516 106.508 35 102.711 35H93.4062V0.734375H103.742C107.227 0.734375 110.227 1.375 112.742 2.65625C115.258 3.92188 117.195 5.80469 118.555 8.30469C119.93 10.7891 120.617 13.8672 120.617 17.5391ZM116.422 17.6797C116.422 14.6016 115.906 12.0625 114.875 10.0625C113.859 8.0625 112.359 6.57812 110.375 5.60938C108.406 4.625 105.992 4.13281 103.133 4.13281H97.3906V31.5781H102.242C106.961 31.5781 110.5 30.4141 112.859 28.0859C115.234 25.7578 116.422 22.2891 116.422 17.6797Z" fill="black"/>
<path d="M149.164 35H125.375V32L143.82 4.29688H126.008V0.734375H148.672V3.73438L130.203 31.4375H149.164V35ZM174.781 35H155.703V0.734375H174.781V4.25H159.688V15.3359H173.914V18.8047H159.688V31.4844H174.781V35ZM209.164 35H204.57L185.891 6.21875H185.703C185.75 6.98438 185.805 7.85938 185.867 8.84375C185.93 9.8125 185.977 10.8516 186.008 11.9609C186.055 13.0547 186.078 14.1719 186.078 15.3125V35H182.375V0.734375H186.945L205.555 29.4219H205.719C205.688 28.875 205.648 28.1016 205.602 27.1016C205.555 26.0859 205.508 25 205.461 23.8438C205.43 22.6719 205.414 21.5859 205.414 20.5859V0.734375H209.164V35Z" fill="white"/>
</svg>
