<?xml version="1.0" standalone="no"?>
<!DOCTYPE svg PUBLIC "-//W3C//DTD SVG 20010904//EN"
 "http://www.w3.org/TR/2001/REC-SVG-20010904/DTD/svg10.dtd">
<svg version="1.0" xmlns="http://www.w3.org/2000/svg"
 width="512.000000pt" height="512.000000pt" viewBox="0 0 512.000000 512.000000"
 preserveAspectRatio="xMidYMid meet">
<metadata>
Created by potrace 1.14, written by Peter Selinger 2001-2017
</metadata>
<g transform="translate(0.000000,512.000000) scale(0.100000,-0.100000)"
fill="#000000" stroke="none">
<path d="M2388 5115 c-2 -2 -37 -6 -78 -9 -120 -10 -165 -17 -168 -25 -1 -5
-13 -6 -25 -4 -41 8 -407 -95 -527 -148 -191 -84 -360 -174 -360 -190 0 -6 -4
-8 -8 -5 -7 4 -77 -37 -109 -64 -7 -5 -15 -10 -18 -10 -3 0 -13 -8 -23 -17
-10 -10 -29 -25 -42 -33 -13 -8 -30 -22 -39 -30 -9 -8 -31 -26 -49 -38 -58
-42 -141 -125 -135 -135 3 -6 1 -7 -5 -3 -7 4 -34 -16 -66 -48 -30 -31 -53
-56 -51 -56 2 0 -21 -25 -51 -56 -30 -31 -54 -60 -54 -64 0 -4 -15 -23 -32
-43 -34 -36 -85 -106 -87 -119 -1 -4 -12 -19 -26 -34 -13 -14 -30 -39 -37 -55
-7 -16 -16 -29 -20 -29 -5 0 -8 -6 -8 -14 0 -8 -7 -22 -16 -30 -8 -9 -12 -21
-8 -27 4 -7 3 -9 -2 -6 -13 8 -97 -160 -88 -174 4 -7 3 -9 -3 -6 -18 12 -141
-301 -157 -398 -1 -5 -4 -14 -8 -20 -6 -10 -14 -44 -24 -100 -3 -16 -11 -57
-19 -90 -7 -33 -16 -82 -19 -110 -20 -162 -22 -186 -14 -191 5 -3 4 -12 -3
-20 -9 -11 -8 -18 2 -31 10 -12 10 -15 1 -9 -10 6 -11 -29 -7 -171 3 -98 7
-196 10 -218 10 -89 27 -193 40 -251 8 -34 17 -73 19 -85 22 -99 113 -369 125
-369 4 0 7 -8 8 -18 2 -28 113 -247 123 -245 6 2 9 0 9 -5 -4 -21 3 -40 24
-62 12 -14 23 -32 25 -39 2 -12 25 -46 112 -170 18 -24 37 -49 43 -56 7 -6 23
-27 37 -45 79 -105 349 -370 376 -370 5 0 15 -9 22 -20 7 -11 16 -20 21 -20 6
0 24 -13 42 -30 18 -16 35 -28 37 -26 2 3 12 -3 22 -12 41 -37 51 -43 62 -36
6 4 8 3 4 -4 -3 -6 7 -16 24 -24 16 -7 30 -17 30 -22 0 -4 7 -5 16 -2 8 3 13
2 10 -2 -5 -8 64 -50 71 -44 2 1 13 -7 25 -18 12 -11 28 -18 35 -16 7 3 13 1
13 -4 0 -8 54 -38 80 -45 3 0 20 -9 37 -18 18 -10 35 -17 38 -18 3 0 26 -9 52
-20 27 -12 58 -22 70 -22 11 -1 19 -5 17 -8 -6 -10 45 -21 58 -13 7 4 8 3 4
-4 -4 -8 0 -12 11 -12 11 0 24 -5 31 -12 9 -9 12 -9 12 2 0 12 2 12 9 2 7 -12
146 -53 222 -66 19 -3 45 -8 59 -11 14 -4 53 -10 88 -15 35 -4 66 -11 69 -13
3 -3 16 -2 30 4 14 5 22 5 19 0 -4 -5 20 -11 51 -13 70 -5 448 -1 483 5 14 3
48 8 75 11 28 4 73 11 100 16 28 5 64 12 80 15 26 4 131 30 160 39 6 1 30 8
55 15 59 16 221 76 290 108 30 13 71 32 90 41 19 8 76 38 125 65 623 345 1080
947 1245 1640 50 212 64 331 64 572 1 121 -2 254 -7 297 -7 73 -41 275 -53
310 -2 9 -7 25 -9 37 -8 45 -47 172 -75 248 -165 454 -441 836 -825 1144 -125
100 -314 218 -470 293 -110 54 -289 124 -317 126 -4 1 -23 7 -43 16 -19 8 -35
11 -35 8 0 -4 -7 -1 -15 6 -8 7 -24 10 -34 7 -11 -3 -21 -1 -23 4 -4 11 -196
51 -209 44 -5 -4 -9 -2 -9 4 0 5 -8 9 -17 9 -10 0 -56 5 -103 12 -73 11 -473
23 -482 15z m-898 -435 c0 -5 -2 -10 -4 -10 -3 0 -8 5 -11 10 -3 6 -1 10 4 10
6 0 11 -4 11 -10z m-365 -40 c3 -5 1 -10 -4 -10 -6 0 -11 5 -11 10 0 6 2 10 4
10 3 0 8 -4 11 -10z m166 -37 c13 -16 12 -17 -3 -4 -10 7 -18 15 -18 17 0 8 8
3 21 -13z m79 3 c0 -2 -7 -7 -16 -10 -8 -3 -12 -2 -9 4 6 10 25 14 25 6z m213
-121 c-3 -9 -8 -14 -10 -11 -3 3 -2 9 2 15 9 16 15 13 8 -4z m127 11 c0 -2 -8
-10 -17 -17 -16 -13 -17 -12 -4 4 13 16 21 21 21 13z m-780 -50 c0 -3 -4 -8
-10 -11 -5 -3 -10 -1 -10 4 0 6 5 11 10 11 6 0 10 -2 10 -4z m154 -136 c-6 -6
-10 -3 -10 10 0 13 4 16 10 10 7 -7 7 -13 0 -20z m326 10 c0 -5 -4 -10 -10
-10 -5 0 -10 5 -10 10 0 6 5 10 10 10 6 0 10 -4 10 -10z m437 -35 c0 -8 -4
-12 -9 -9 -5 3 -6 10 -3 15 9 13 12 11 12 -6z m-997 -1 c0 -8 -19 -13 -24 -6
-3 5 1 9 9 9 8 0 15 -2 15 -3z m554 -82 c3 -5 -1 -9 -9 -9 -8 0 -12 4 -9 9 3
4 7 8 9 8 2 0 6 -4 9 -8z m-349 -41 c-9 -8 -36 -10 -30 -2 2 4 11 8 20 8 8 0
13 -3 10 -6z m-400 -61 c3 -6 -1 -7 -9 -4 -18 7 -21 14 -7 14 6 0 13 -4 16
-10z m565 -214 c0 -2 -8 -10 -17 -17 -16 -13 -17 -12 -4 4 13 16 21 21 21 13z
m-290 -86 c0 -5 -5 -10 -11 -10 -5 0 -7 5 -4 10 3 6 8 10 11 10 2 0 4 -4 4
-10z m40 -40 c0 -5 -5 -10 -11 -10 -5 0 -7 5 -4 10 3 6 8 10 11 10 2 0 4 -4 4
-10z m845 1 c-9 -8 -36 -10 -30 -2 2 4 11 8 20 8 8 0 13 -3 10 -6z m1435 -275
c0 -3 -4 -8 -10 -11 -5 -3 -10 -1 -10 4 0 6 5 11 10 11 6 0 10 -2 10 -4z
m-2323 -81 c0 -8 -4 -12 -9 -9 -5 3 -6 10 -3 15 9 13 12 11 12 -6z m999 0 c-1
-8 -5 -17 -8 -21 -5 -4 -4 16 1 34 3 9 9 -1 7 -13z m-1106 -101 c0 -8 -19 -13
-24 -6 -3 5 1 9 9 9 8 0 15 -2 15 -3z m30 -60 c0 -8 -19 -13 -24 -6 -3 5 1 9
9 9 8 0 15 -2 15 -3z m715 -3 c3 -5 2 -12 -3 -15 -5 -3 -9 1 -9 9 0 17 3 19
12 6z m395 -35 c0 -2 -8 -10 -17 -17 -16 -13 -17 -12 -4 4 13 16 21 21 21 13z
m220 -6 c8 -5 11 -10 5 -10 -5 0 -17 5 -25 10 -8 5 -10 10 -5 10 6 0 17 -5 25
-10z m-1410 -162 c0 -4 -4 -8 -9 -8 -6 0 -12 4 -15 8 -3 5 1 9 9 9 8 0 15 -4
15 -9z m-280 -58 c0 -5 -5 -10 -11 -10 -5 0 -7 5 -4 10 3 6 8 10 11 10 2 0 4
-4 4 -10z m2760 -60 c0 -5 -2 -10 -4 -10 -3 0 -8 5 -11 10 -3 6 -1 10 4 10 6
0 11 -4 11 -10z m-1329 -67 c13 -16 12 -17 -3 -4 -17 13 -22 21 -14 21 2 0 10
-8 17 -17z m-25 -55 c3 -4 -1 -5 -10 -4 -8 1 -18 5 -22 8 -3 4 1 5 10 4 8 -1
18 -5 22 -8z m-282 -56 c3 -5 -1 -9 -9 -9 -8 0 -12 4 -9 9 3 4 7 8 9 8 2 0 6
-4 9 -8z m-167 -67 c0 -8 -4 -12 -9 -9 -4 3 -8 9 -8 15 0 5 4 9 8 9 5 0 9 -7
9 -15z m123 5 c0 -5 -5 -10 -11 -10 -5 0 -7 5 -4 10 3 6 8 10 11 10 2 0 4 -4
4 -10z m-165 -40 c3 -5 1 -10 -4 -10 -6 0 -11 5 -11 10 0 6 2 10 4 10 3 0 8
-4 11 -10z m210 -20 c3 -6 -1 -7 -9 -4 -18 7 -21 14 -7 14 6 0 13 -4 16 -10z
m-454 -67 c13 -16 12 -17 -3 -4 -10 7 -18 15 -18 17 0 8 8 3 21 -13z m123 1
c3 -8 2 -12 -4 -9 -6 3 -10 10 -10 16 0 14 7 11 14 -7z m961 -2 c-3 -3 -11 0
-18 7 -9 10 -8 11 6 5 10 -3 15 -9 12 -12z m-680 -31 c3 -5 2 -12 -3 -15 -5
-3 -9 1 -9 9 0 17 3 19 12 6z m281 -87 c1 -9 0 -13 -4 -10 -3 4 -7 14 -8 22
-1 9 0 13 4 10 3 -4 7 -14 8 -22z m-321 -73 c3 -5 2 -12 -3 -15 -5 -3 -9 1 -9
9 0 17 3 19 12 6z m242 -86 c0 -8 -4 -12 -9 -9 -4 3 -8 9 -8 15 0 5 4 9 8 9 5
0 9 -7 9 -15z m-437 -19 c0 -2 -8 -10 -17 -17 -16 -13 -17 -12 -4 4 13 16 21
21 21 13z m498 -21 c-3 -3 -9 2 -12 12 -6 14 -5 15 5 6 7 -7 10 -15 7 -18z
m-341 -30 c0 -8 -4 -12 -9 -9 -5 3 -6 10 -3 15 9 13 12 11 12 -6z m-557 -1 c0
-8 -19 -13 -24 -6 -3 5 1 9 9 9 8 0 15 -2 15 -3z m480 -78 c0 -3 -4 -8 -10
-11 -5 -3 -10 -1 -10 4 0 6 5 11 10 11 6 0 10 -2 10 -4z m157 -241 c0 -8 -4
-12 -9 -9 -5 3 -6 10 -3 15 9 13 12 11 12 -6z m-197 -85 c0 -5 -5 -10 -11 -10
-5 0 -7 5 -4 10 3 6 8 10 11 10 2 0 4 -4 4 -10z m496 -35 c-1 -8 -5 -17 -8
-21 -5 -4 -4 16 1 34 3 9 9 -1 7 -13z m-376 -39 c0 -3 -4 -8 -10 -11 -5 -3
-10 -1 -10 4 0 6 5 11 10 11 6 0 10 -2 10 -4z m130 -222 c0 -8 -19 -13 -24 -6
-3 5 1 9 9 9 8 0 15 -2 15 -3z m195 -143 c-9 -8 -36 -10 -30 -2 2 4 11 8 20 8
8 0 13 -3 10 -6z m1480 -81 c3 -6 -1 -7 -9 -4 -18 7 -21 14 -7 14 6 0 13 -4
16 -10z m-2368 -35 c0 -8 -4 -12 -9 -9 -5 3 -6 10 -3 15 9 13 12 11 12 -6z
m-232 -284 c-9 -8 -36 -10 -30 -2 2 4 11 8 20 8 8 0 13 -3 10 -6z m125 5 c0
-2 -8 -10 -17 -17 -16 -13 -17 -12 -4 4 13 16 21 21 21 13z m27 -51 c0 -8 -4
-12 -9 -9 -5 3 -6 10 -3 15 9 13 12 11 12 -6z m157 -41 c3 -8 2 -12 -4 -9 -6
3 -10 10 -10 16 0 14 7 11 14 -7z m-197 -119 c0 -8 -4 -12 -9 -9 -4 3 -8 9 -8
15 0 5 4 9 8 9 5 0 9 -7 9 -15z m640 -70 c0 -8 -4 -12 -9 -9 -5 3 -6 10 -3 15
9 13 12 11 12 -6z m123 -5 c0 -5 -2 -10 -4 -10 -3 0 -8 5 -11 10 -3 6 -1 10 4
10 6 0 11 -4 11 -10z m-80 -74 c0 -3 -4 -8 -10 -11 -5 -3 -10 -1 -10 4 0 6 5
11 10 11 6 0 10 -2 10 -4z m431 -39 c-10 -9 -11 -8 -5 6 3 10 9 15 12 12 3 -3
0 -11 -7 -18z m-630 -124 c13 -16 12 -17 -3 -4 -10 7 -18 15 -18 17 0 8 8 3
21 -13z m79 13 c0 -2 -8 -10 -17 -17 -16 -13 -17 -12 -4 4 13 16 21 21 21 13z
m77 -91 c0 -8 -4 -12 -9 -9 -5 3 -6 10 -3 15 9 13 12 11 12 -6z m123 -5 c0 -5
-2 -10 -4 -10 -3 0 -8 5 -11 10 -3 6 -1 10 4 10 6 0 11 -4 11 -10z m-155 -40
c3 -6 -1 -7 -9 -4 -18 7 -21 14 -7 14 6 0 13 -4 16 -10z"/>
</g>
</svg>
