<?xml version="1.0" standalone="no"?>
<!DOCTYPE svg PUBLIC "-//W3C//DTD SVG 20010904//EN"
 "http://www.w3.org/TR/2001/REC-SVG-20010904/DTD/svg10.dtd">
<svg version="1.0" xmlns="http://www.w3.org/2000/svg"
 width="700.000000pt" height="700.000000pt" viewBox="0 0 700.000000 700.000000"
 preserveAspectRatio="xMidYMid meet">
<metadata>
Created by potrace 1.14, written by Peter Selinger 2001-2017
</metadata>
<g transform="translate(0.000000,700.000000) scale(0.100000,-0.100000)"
fill="#000000" stroke="none">
<path d="M3251 6320 c-29 -5 -81 -11 -115 -14 -135 -12 -362 -64 -535 -123
-906 -305 -1607 -1058 -1841 -1973 -27 -106 -68 -332 -77 -426 -10 -104 -10
-469 0 -564 69 -655 349 -1248 807 -1709 374 -376 843 -642 1342 -760 255 -61
385 -76 668 -76 183 1 305 7 380 19 14 3 68 12 120 21 875 148 1657 742 2050
1560 94 197 192 479 216 625 2 14 7 36 10 50 12 51 12 52 39 265 12 97 14 510
2 565 -3 14 -8 54 -12 89 -15 156 -91 468 -145 596 -4 11 -18 47 -31 80 -12
33 -50 119 -84 190 -331 687 -938 1218 -1667 1456 -153 50 -364 98 -503 114
-33 4 -73 9 -90 12 -57 8 -480 10 -534 3z"/>
</g>
</svg>
